<?xml version="1.0" encoding="UTF-8" standalone="no"?>
<!DOCTYPE svg PUBLIC "-//W3C//DTD SVG 1.1//EN" "http://www.w3.org/Graphics/SVG/1.1/DTD/svg11.dtd">
<svg version="1.1" xmlns="http://www.w3.org/2000/svg" xmlns:xlink="http://www.w3.org/1999/xlink" preserveAspectRatio="xMidYMid meet" viewBox="0 0 16 16" width="16" height="16"><defs><path d="M7.5 10.21L10.42 10.21L12.1 7.29L10.42 4.36L7.5 4.36L9.18 7.29L7.5 10.21Z" id="a4sY84KxF"></path><path d="M7.5 10.21L10.42 10.21L12.1 7.29L10.42 4.36L7.5 4.36L9.18 7.29L7.5 10.21Z" id="a5pjmyTV2"></path><path d="M7.5 10.21L10.42 10.21L12.1 7.29L10.42 4.36L7.5 4.36L9.18 7.29L7.5 10.21Z" id="abmOxHorw"></path><path d="M7.5 10.21L10.42 10.21L12.1 7.29L10.42 4.36L7.5 4.36L9.18 7.29L7.5 10.21Z" id="a70us6c05w"></path><path d="M11.4 10.21L14.32 10.21L16 7.29L14.32 4.36L11.4 4.36L13.08 7.29L11.4 10.21Z" id="axBtwxsDT"></path><path d="M11.4 10.21L14.32 10.21L16 7.29L14.32 4.36L11.4 4.36L13.08 7.29L11.4 10.21Z" id="b21YUEB3Nv"></path><path d="M11.4 10.21L14.32 10.21L16 7.29L14.32 4.36L11.4 4.36L13.08 7.29L11.4 10.21Z" id="b5t52JM7Tp"></path><path d="M11.4 10.21L14.32 10.21L16 7.29L14.32 4.36L11.4 4.36L13.08 7.29L11.4 10.21Z" id="c1aHxMsiiM"></path><path d="M3.8 4.36L5.48 7.29L8.4 7.29L6.72 4.36L8.4 1.44L5.48 1.44L3.8 4.36Z" id="d3tttZnTq"></path><path d="M3.8 4.36L5.48 7.29L8.4 7.29L6.72 4.36L8.4 1.44L5.48 1.44L3.8 4.36Z" id="d1xVJDlcuB"></path><path d="M3.8 4.36L5.48 7.29L8.4 7.29L6.72 4.36L8.4 1.44L5.48 1.44L3.8 4.36Z" id="e1Fv927XiE"></path><path d="M3.8 4.36L5.48 7.29L8.4 7.29L6.72 4.36L8.4 1.44L5.48 1.44L3.8 4.36Z" id="a27PyPVVxp"></path><path d="M1.68 7.29L4.6 7.29L2.92 4.36L4.6 1.44L1.68 1.44L0 4.36L1.68 7.29Z" id="aUSTDteal"></path><path d="M1.68 7.29L4.6 7.29L2.92 4.36L4.6 1.44L1.68 1.44L0 4.36L1.68 7.29Z" id="a3qzU3IPNp"></path><path d="M1.68 7.29L4.6 7.29L2.92 4.36L4.6 1.44L1.68 1.44L0 4.36L1.68 7.29Z" id="dz7PRNnEi"></path><path d="M1.68 7.29L4.6 7.29L2.92 4.36L4.6 1.44L1.68 1.44L0 4.36L1.68 7.29Z" id="b2KSxcKIKA"></path><path d="M14.43 10.83L14.43 12.69L15.5 12.69L14.08 14.56L12.66 12.69L13.72 12.69L13.72 10.83L13.7 10.68L13.62 10.57L13.51 10.49L13.37 10.46L10.8 10.46L10.23 9.71L13.37 9.71L13.78 9.8L14.12 10.04L14.35 10.39L14.43 10.83Z" id="ao4BrHusm"></path><path d="M14.43 10.83L14.43 12.69L15.5 12.69L14.08 14.56L12.66 12.69L13.72 12.69L13.72 10.83L13.7 10.68L13.62 10.57L13.51 10.49L13.37 10.46L10.8 10.46L10.23 9.71L13.37 9.71L13.78 9.8L14.12 10.04L14.35 10.39L14.43 10.83Z" id="fbIPKTyzB"></path><path d="M14.43 10.83L14.43 12.69L15.5 12.69L14.08 14.56L12.66 12.69L13.72 12.69L13.72 10.83L13.7 10.68L13.62 10.57L13.51 10.49L13.37 10.46L10.8 10.46L10.23 9.71L13.37 9.71L13.78 9.8L14.12 10.04L14.35 10.39L14.43 10.83Z" id="eUgTxKTTI"></path><path d="M14.43 10.83L14.43 12.69L15.5 12.69L14.08 14.56L12.66 12.69L13.72 12.69L13.72 10.83L13.7 10.68L13.62 10.57L13.51 10.49L13.37 10.46L10.8 10.46L10.23 9.71L13.37 9.71L13.78 9.8L14.12 10.04L14.35 10.39L14.43 10.83Z" id="b1MUCBRyD"></path><path d="M9.3 13.59L9.38 13.7L9.49 13.78L9.63 13.81L12.2 13.81L12.77 14.56L9.63 14.56L9.22 14.47L8.88 14.23L8.65 13.88L8.57 13.44L8.57 11.58L7.5 11.58L8.92 9.71L10.34 11.58L9.28 11.58L9.28 13.44L9.3 13.59Z" id="aaIRtYJTyi"></path><path d="M9.3 13.59L9.38 13.7L9.49 13.78L9.63 13.81L12.2 13.81L12.77 14.56L9.63 14.56L9.22 14.47L8.88 14.23L8.65 13.88L8.57 13.44L8.57 11.58L7.5 11.58L8.92 9.71L10.34 11.58L9.28 11.58L9.28 13.44L9.3 13.59Z" id="c1NssFdKz4"></path><path d="M9.3 13.59L9.38 13.7L9.49 13.78L9.63 13.81L12.2 13.81L12.77 14.56L9.63 14.56L9.22 14.47L8.88 14.23L8.65 13.88L8.57 13.44L8.57 11.58L7.5 11.58L8.92 9.71L10.34 11.58L9.28 11.58L9.28 13.44L9.3 13.59Z" id="bnOAWTt77"></path><path d="M9.3 13.59L9.38 13.7L9.49 13.78L9.63 13.81L12.2 13.81L12.77 14.56L9.63 14.56L9.22 14.47L8.88 14.23L8.65 13.88L8.57 13.44L8.57 11.58L7.5 11.58L8.92 9.71L10.34 11.58L9.28 11.58L9.28 13.44L9.3 13.59Z" id="ckUiDO76V"></path></defs><g><g><g><use xlink:href="#a4sY84KxF" opacity="1" fill="#2d98e0" fill-opacity="1"></use><g><use xlink:href="#a4sY84KxF" opacity="1" fill-opacity="0" stroke="#000000" stroke-width="1" stroke-opacity="0"></use></g></g><g><use xlink:href="#a5pjmyTV2" opacity="1" fill="#000000" fill-opacity="0"></use><g><use xlink:href="#a5pjmyTV2" opacity="1" fill-opacity="0" stroke="#000000" stroke-width="1" stroke-opacity="0"></use></g></g><g><use xlink:href="#abmOxHorw" opacity="1" fill="#000000" fill-opacity="0"></use><g><use xlink:href="#abmOxHorw" opacity="1" fill-opacity="0" stroke="#000000" stroke-width="1" stroke-opacity="0"></use></g></g><g><use xlink:href="#a70us6c05w" opacity="1" fill="#000000" fill-opacity="0"></use><g><use xlink:href="#a70us6c05w" opacity="1" fill-opacity="0" stroke="#000000" stroke-width="1" stroke-opacity="0"></use></g></g><g><use xlink:href="#axBtwxsDT" opacity="1" fill="#2d98e0" fill-opacity="1"></use><g><use xlink:href="#axBtwxsDT" opacity="1" fill-opacity="0" stroke="#000000" stroke-width="1" stroke-opacity="0"></use></g></g><g><use xlink:href="#b21YUEB3Nv" opacity="1" fill="#000000" fill-opacity="0"></use><g><use xlink:href="#b21YUEB3Nv" opacity="1" fill-opacity="0" stroke="#000000" stroke-width="1" stroke-opacity="0"></use></g></g><g><use xlink:href="#b5t52JM7Tp" opacity="1" fill="#000000" fill-opacity="0"></use><g><use xlink:href="#b5t52JM7Tp" opacity="1" fill-opacity="0" stroke="#000000" stroke-width="1" stroke-opacity="0"></use></g></g><g><use xlink:href="#c1aHxMsiiM" opacity="1" fill="#000000" fill-opacity="0"></use><g><use xlink:href="#c1aHxMsiiM" opacity="1" fill-opacity="0" stroke="#000000" stroke-width="1" stroke-opacity="0"></use></g></g><g><use xlink:href="#d3tttZnTq" opacity="1" fill="#2d98e0" fill-opacity="1"></use><g><use xlink:href="#d3tttZnTq" opacity="1" fill-opacity="0" stroke="#000000" stroke-width="1" stroke-opacity="0"></use></g></g><g><use xlink:href="#d1xVJDlcuB" opacity="1" fill="#000000" fill-opacity="0"></use><g><use xlink:href="#d1xVJDlcuB" opacity="1" fill-opacity="0" stroke="#000000" stroke-width="1" stroke-opacity="0"></use></g></g><g><use xlink:href="#e1Fv927XiE" opacity="1" fill="#000000" fill-opacity="0"></use><g><use xlink:href="#e1Fv927XiE" opacity="1" fill-opacity="0" stroke="#000000" stroke-width="1" stroke-opacity="0"></use></g></g><g><use xlink:href="#a27PyPVVxp" opacity="1" fill="#000000" fill-opacity="0"></use><g><use xlink:href="#a27PyPVVxp" opacity="1" fill-opacity="0" stroke="#000000" stroke-width="1" stroke-opacity="0"></use></g></g><g><use xlink:href="#aUSTDteal" opacity="1" fill="#2d98e0" fill-opacity="1"></use><g><use xlink:href="#aUSTDteal" opacity="1" fill-opacity="0" stroke="#000000" stroke-width="1" stroke-opacity="0"></use></g></g><g><use xlink:href="#a3qzU3IPNp" opacity="1" fill="#000000" fill-opacity="0"></use><g><use xlink:href="#a3qzU3IPNp" opacity="1" fill-opacity="0" stroke="#000000" stroke-width="1" stroke-opacity="0"></use></g></g><g><use xlink:href="#dz7PRNnEi" opacity="1" fill="#000000" fill-opacity="0"></use><g><use xlink:href="#dz7PRNnEi" opacity="1" fill-opacity="0" stroke="#000000" stroke-width="1" stroke-opacity="0"></use></g></g><g><use xlink:href="#b2KSxcKIKA" opacity="1" fill="#000000" fill-opacity="0"></use><g><use xlink:href="#b2KSxcKIKA" opacity="1" fill-opacity="0" stroke="#000000" stroke-width="1" stroke-opacity="0"></use></g></g><g><use xlink:href="#ao4BrHusm" opacity="1" fill="#c5c5c5" fill-opacity="1"></use><g><use xlink:href="#ao4BrHusm" opacity="1" fill-opacity="0" stroke="#000000" stroke-width="1" stroke-opacity="0"></use></g></g><g><use xlink:href="#fbIPKTyzB" opacity="1" fill="#000000" fill-opacity="0"></use><g><use xlink:href="#fbIPKTyzB" opacity="1" fill-opacity="0" stroke="#000000" stroke-width="1" stroke-opacity="0"></use></g></g><g><use xlink:href="#eUgTxKTTI" opacity="1" fill="#000000" fill-opacity="0"></use><g><use xlink:href="#eUgTxKTTI" opacity="1" fill-opacity="0" stroke="#000000" stroke-width="1" stroke-opacity="0"></use></g></g><g><use xlink:href="#b1MUCBRyD" opacity="1" fill="#000000" fill-opacity="0"></use><g><use xlink:href="#b1MUCBRyD" opacity="1" fill-opacity="0" stroke="#c5c5c5" stroke-width="0.5" stroke-opacity="1"></use></g></g><g><use xlink:href="#aaIRtYJTyi" opacity="1" fill="#c5c5c5" fill-opacity="1"></use><g><use xlink:href="#aaIRtYJTyi" opacity="1" fill-opacity="0" stroke="#000000" stroke-width="1" stroke-opacity="0"></use></g></g><g><use xlink:href="#c1NssFdKz4" opacity="1" fill="#000000" fill-opacity="0"></use><g><use xlink:href="#c1NssFdKz4" opacity="1" fill-opacity="0" stroke="#000000" stroke-width="1" stroke-opacity="0"></use></g></g><g><use xlink:href="#bnOAWTt77" opacity="1" fill="#000000" fill-opacity="0"></use><g><use xlink:href="#bnOAWTt77" opacity="1" fill-opacity="0" stroke="#000000" stroke-width="1" stroke-opacity="0"></use></g></g><g><use xlink:href="#ckUiDO76V" opacity="1" fill="#000000" fill-opacity="0"></use><g><use xlink:href="#ckUiDO76V" opacity="1" fill-opacity="0" stroke="#c5c5c5" stroke-width="0.5" stroke-opacity="1"></use></g></g></g></g></svg>