<?xml version="1.0" encoding="UTF-8" standalone="no"?>
<!DOCTYPE svg PUBLIC "-//W3C//DTD SVG 1.1//EN" "http://www.w3.org/Graphics/SVG/1.1/DTD/svg11.dtd">
<svg version="1.1" xmlns="http://www.w3.org/2000/svg" xmlns:xlink="http://www.w3.org/1999/xlink" preserveAspectRatio="xMidYMid meet" viewBox="0 0 16 16" width="16" height="16"><defs><path d="M7.5 4.36L9.18 7.29L7.5 10.21L10.42 10.21L12.1 7.29L10.42 4.36L7.5 4.36Z" id="c1lY8kEntU"></path><path d="M11.4 4.36L13.08 7.29L11.4 10.21L14.32 10.21L16 7.29L14.32 4.36L11.4 4.36Z" id="baRUkWSm3m"></path><path d="M8.4 1.44L5.48 1.44L3.8 4.36L5.48 7.29L8.4 7.29L6.72 4.36L8.4 1.44Z" id="nc2z8YltR"></path><path d="M1.68 1.44L0 4.36L1.68 7.29L4.6 7.29L2.92 4.36L4.6 1.44L1.68 1.44Z" id="a3WPW4hfLM"></path><path d="M12.13 9.11L12.25 9.12L12.36 9.14L12.47 9.16L12.58 9.18L12.68 9.21L12.79 9.24L12.89 9.28L12.99 9.32L13.09 9.36L13.19 9.41L13.29 9.46L13.38 9.52L13.47 9.58L13.56 9.64L13.64 9.71L13.73 9.77L13.81 9.85L13.89 9.92L13.96 10L14.03 10.08L14.1 10.16L14.17 10.25L14.23 10.34L14.29 10.43L14.34 10.52L14.39 10.61L14.44 10.71L14.49 10.81L14.53 10.91L14.56 11.02L14.6 11.12L14.62 11.23L14.65 11.34L14.67 11.45L14.69 11.56L14.7 11.67L14.7 11.79L14.71 11.9L14.7 12.02L14.7 12.13L14.69 12.25L14.67 12.36L14.65 12.47L14.62 12.58L14.6 12.68L14.56 12.79L14.53 12.89L14.49 12.99L14.44 13.09L14.39 13.19L14.34 13.29L14.29 13.38L14.23 13.47L16 15.24L15.24 16L13.47 14.23L13.38 14.29L13.29 14.34L13.19 14.39L13.09 14.44L12.99 14.49L12.89 14.53L12.79 14.56L12.68 14.6L12.58 14.62L12.47 14.65L12.36 14.67L12.25 14.69L12.13 14.7L12.02 14.7L11.9 14.71L11.79 14.7L11.67 14.7L11.56 14.69L11.45 14.67L11.34 14.65L11.23 14.62L11.12 14.6L11.02 14.56L10.91 14.53L10.81 14.49L10.71 14.44L10.61 14.39L10.52 14.34L10.43 14.29L10.34 14.23L10.25 14.17L10.16 14.1L10.08 14.03L10 13.96L9.92 13.89L9.85 13.81L9.77 13.73L9.71 13.64L9.64 13.56L9.58 13.47L9.52 13.38L9.46 13.29L9.41 13.19L9.36 13.09L9.32 12.99L9.28 12.89L9.24 12.79L9.21 12.68L9.18 12.58L9.16 12.47L9.14 12.36L9.12 12.25L9.11 12.13L9.1 12.02L9.1 11.9L9.1 11.79L9.11 11.67L9.12 11.56L9.14 11.45L9.16 11.34L9.18 11.23L9.21 11.12L9.24 11.02L9.28 10.91L9.32 10.81L9.36 10.71L9.41 10.61L9.46 10.52L9.52 10.43L9.58 10.34L9.64 10.25L9.71 10.16L9.77 10.08L9.85 10L9.92 9.92L10 9.85L10.08 9.77L10.16 9.71L10.25 9.64L10.34 9.58L10.43 9.52L10.52 9.46L10.61 9.41L10.71 9.36L10.81 9.32L10.91 9.28L11.02 9.24L11.12 9.21L11.23 9.18L11.34 9.16L11.45 9.14L11.56 9.12L11.67 9.11L11.79 9.1L11.9 9.1L12.02 9.1L12.13 9.11ZM11.76 10.18L11.69 10.19L11.62 10.2L11.55 10.21L11.49 10.22L11.42 10.24L11.36 10.26L11.29 10.28L11.23 10.31L11.17 10.34L11.11 10.37L11.05 10.4L10.99 10.43L10.94 10.47L10.88 10.51L10.83 10.55L10.78 10.59L10.73 10.63L10.68 10.68L10.63 10.73L10.59 10.78L10.55 10.83L10.51 10.88L10.47 10.94L10.43 10.99L10.4 11.05L10.37 11.11L10.34 11.17L10.31 11.23L10.28 11.29L10.26 11.36L10.24 11.42L10.22 11.49L10.21 11.55L10.2 11.62L10.19 11.69L10.18 11.76L10.17 11.83L10.17 11.9L10.17 11.97L10.18 12.04L10.19 12.11L10.2 12.18L10.21 12.25L10.22 12.32L10.24 12.38L10.26 12.45L10.28 12.51L10.31 12.58L10.34 12.64L10.37 12.7L10.4 12.76L10.43 12.81L10.47 12.87L10.51 12.92L10.55 12.98L10.59 13.03L10.63 13.08L10.68 13.13L10.73 13.17L10.78 13.22L10.83 13.26L10.88 13.3L10.94 13.34L10.99 13.37L11.05 13.41L11.11 13.44L11.17 13.47L11.23 13.5L11.29 13.52L11.36 13.54L11.42 13.56L11.49 13.58L11.55 13.6L11.62 13.61L11.69 13.62L11.76 13.63L11.83 13.63L11.9 13.63L11.97 13.63L12.04 13.63L12.11 13.62L12.18 13.61L12.25 13.6L12.32 13.58L12.38 13.56L12.45 13.54L12.51 13.52L12.58 13.5L12.64 13.47L12.7 13.44L12.76 13.41L12.81 13.37L12.87 13.34L12.92 13.3L12.98 13.26L13.03 13.22L13.08 13.17L13.13 13.13L13.17 13.08L13.22 13.03L13.26 12.98L13.3 12.92L13.34 12.87L13.37 12.81L13.41 12.76L13.44 12.7L13.47 12.64L13.5 12.58L13.52 12.51L13.54 12.45L13.56 12.38L13.58 12.32L13.6 12.25L13.61 12.18L13.62 12.11L13.63 12.04L13.63 11.97L13.63 11.9L13.63 11.83L13.63 11.76L13.62 11.69L13.61 11.62L13.6 11.55L13.58 11.49L13.56 11.42L13.54 11.36L13.52 11.29L13.5 11.23L13.47 11.17L13.44 11.11L13.41 11.05L13.37 10.99L13.34 10.94L13.3 10.88L13.26 10.83L13.22 10.78L13.17 10.73L13.13 10.68L13.08 10.63L13.03 10.59L12.98 10.55L12.92 10.51L12.87 10.47L12.81 10.43L12.76 10.4L12.7 10.37L12.64 10.34L12.58 10.31L12.51 10.28L12.45 10.26L12.38 10.24L12.32 10.22L12.25 10.21L12.18 10.2L12.11 10.19L12.04 10.18L11.97 10.17L11.9 10.17L11.83 10.17L11.76 10.18Z" id="b18bXZsdc"></path></defs><g><g><g><g><use xlink:href="#c1lY8kEntU" opacity="1" fill="#2d98e0" fill-opacity="1"></use><g><use xlink:href="#c1lY8kEntU" opacity="1" fill-opacity="0" stroke="#000000" stroke-width="1" stroke-opacity="0"></use></g></g><g><use xlink:href="#baRUkWSm3m" opacity="1" fill="#2d98e0" fill-opacity="1"></use><g><use xlink:href="#baRUkWSm3m" opacity="1" fill-opacity="0" stroke="#000000" stroke-width="1" stroke-opacity="0"></use></g></g><g><use xlink:href="#nc2z8YltR" opacity="1" fill="#2d98e0" fill-opacity="1"></use><g><use xlink:href="#nc2z8YltR" opacity="1" fill-opacity="0" stroke="#000000" stroke-width="1" stroke-opacity="0"></use></g></g><g><use xlink:href="#a3WPW4hfLM" opacity="1" fill="#2d98e0" fill-opacity="1"></use><g><use xlink:href="#a3WPW4hfLM" opacity="1" fill-opacity="0" stroke="#000000" stroke-width="1" stroke-opacity="0"></use></g></g></g><g><use xlink:href="#b18bXZsdc" opacity="1" fill="#656565" fill-opacity="1"></use><g><use xlink:href="#b18bXZsdc" opacity="1" fill-opacity="0" stroke="#656565" stroke-width="0.3" stroke-opacity="1"></use></g></g></g></g></svg>